<svg xmlns="http://www.w3.org/2000/svg" width="39.626" height="37.942" viewBox="0 0 39.626 37.942">
  <g id="Raggruppa_189" data-name="Raggruppa 189" transform="translate(-8187.544 -3992.104)">
    <path id="Tracciato_172" data-name="Tracciato 172" d="M8225.059,4012.249a3.346,3.346,0,0,0,1.592-3.169,3.5,3.5,0,0,0-3.544-3.042h-11.555a26.8,26.8,0,0,0,1.68-7.556c0-3.149-2.729-5.878-4.2-5.878a4.4,4.4,0,0,0-2.52.84v5.877l-5.037,10.915-1.679.839V4009.4h-8.4a3.358,3.358,0,0,0-3.358,3.358v13.434a3.357,3.357,0,0,0,3.358,3.358h5.038a3.358,3.358,0,0,0,3.358-3.358h0c1.014,1.014,3.568,1.679,5.037,1.679h15.414a3.02,3.02,0,0,0,2.983-2.274,3.484,3.484,0,0,1,1.753-5.7,2.92,2.92,0,0,1,1.679-5.038A2.926,2.926,0,0,0,8225.059,4012.249Z" fill="none" stroke="#a19991" stroke-linecap="round" stroke-linejoin="round" stroke-width="1"/>
    <line id="Linea_24" data-name="Linea 24" y2="15.112" transform="translate(8199.798 4011.075)" fill="none" stroke="#a19991" stroke-linecap="round" stroke-linejoin="round" stroke-width="1"/>
  </g>
</svg>
