<svg xmlns="http://www.w3.org/2000/svg" width="42.556" height="42.556" viewBox="0 0 42.556 42.556">
  <g id="Raggruppa_187" data-name="Raggruppa 187" transform="translate(-7657.139 -3989.797)">
    <g id="Raggruppa_186" data-name="Raggruppa 186">
      <g id="Raggruppa_185" data-name="Raggruppa 185">
        <g id="Raggruppa_184" data-name="Raggruppa 184">
          <g id="Raggruppa_183" data-name="Raggruppa 183">
            <g id="Raggruppa_182" data-name="Raggruppa 182">
              <circle id="Ellisse_5" data-name="Ellisse 5" cx="9.034" cy="9.034" r="9.034" transform="translate(7681.127 4013.785)" fill="none" stroke="#a19991" stroke-linecap="round" stroke-linejoin="round" stroke-width="1"/>
            </g>
            <path id="Tracciato_170" data-name="Tracciato 170" d="M7686.393,4022.82l2.512,2.512,5.024-5.024" fill="none" stroke="#a19991" stroke-linecap="round" stroke-linejoin="round" stroke-width="1"/>
          </g>
        </g>
      </g>
    </g>
    <path id="Tracciato_171" data-name="Tracciato 171" d="M7685.658,4011.012c.045-.28.087-.56.11-.84h.088a1.807,1.807,0,0,0,1.793-1.583l.451-3.613a1.8,1.8,0,0,0-1.772-2.027l.22-4.521.9-.9c1.169-1.243,1.169-2.731,0-4.517s-3.222-2.71-6.088-2.71a10.865,10.865,0,0,0-6.56,1.807c-7.28.072-8.13,3.1-8.13,6.324,0,1.134.426,4.517.426,4.517h-.186a1.806,1.806,0,0,0-1.793,2.031l.451,3.613a1.809,1.809,0,0,0,1.793,1.583h.294a11.522,11.522,0,0,0,3.514,7.3l-.886,3.543-7.445,1.861c-4.119,1.03-5.2,4.733-5.2,8.979l23.676,0" fill="none" stroke="#a19991" stroke-linecap="round" stroke-linejoin="round" stroke-width="1"/>
  </g>
</svg>
