<svg xmlns="http://www.w3.org/2000/svg" width="40.647" height="38.822" viewBox="0 0 40.647 38.822">
  <path id="Tracciato_169" data-name="Tracciato 169" d="M7149.623,3992.866l5.161,10.457a1.241,1.241,0,0,0,.934.678l11.54,1.677a1.24,1.24,0,0,1,.687,2.115l-8.35,8.14a1.241,1.241,0,0,0-.357,1.1l1.971,11.494a1.24,1.24,0,0,1-1.8,1.307l-10.322-5.427a1.245,1.245,0,0,0-1.154,0l-10.321,5.427a1.241,1.241,0,0,1-1.8-1.307l1.972-11.494a1.24,1.24,0,0,0-.357-1.1l-8.35-8.14a1.24,1.24,0,0,1,.687-2.115l11.54-1.677a1.241,1.241,0,0,0,.934-.678l5.161-10.457A1.239,1.239,0,0,1,7149.623,3992.866Z" transform="translate(-7128.188 -3991.675)" fill="none" stroke="#a19991" stroke-linecap="round" stroke-linejoin="round" stroke-width="1"/>
</svg>
