<svg xmlns="http://www.w3.org/2000/svg" width="16.391" height="20.18" viewBox="0 0 16.391 20.18">
  <g id="Raggruppa_540" data-name="Raggruppa 540" transform="translate(-1481.2 -7.41)">
    <path id="Tracciato_444" data-name="Tracciato 444" d="M1496.335,22.318c-.138,3.241-1.889,4.042-4.932,4.149" fill="none" stroke="#fff" stroke-linecap="round" stroke-linejoin="round" stroke-width="1"/>
    <path id="Tracciato_445" data-name="Tracciato 445" d="M1491.4,26.485a.605.605,0,0,1-.6.6h-1.291a.605.605,0,0,1-.6-.6h0a.6.6,0,0,1,.6-.6h1.291a.6.6,0,0,1,.6.6Z" fill="none" stroke="#fff" stroke-linecap="round" stroke-linejoin="round" stroke-width="1"/>
    <path id="Tracciato_446" data-name="Tracciato 446" d="M1484.394,22.479h-1.207a1.378,1.378,0,0,1-1.487-1.232V17.36a1.377,1.377,0,0,1,1.487-1.231h1.207Z" fill="none" stroke="#fff" stroke-linecap="round" stroke-linejoin="round" stroke-width="1"/>
    <path id="Tracciato_447" data-name="Tracciato 447" d="M1494.393,16.129h1.207a1.377,1.377,0,0,1,1.487,1.231v3.887a1.377,1.377,0,0,1-1.487,1.232h-1.207Z" fill="none" stroke="#fff" stroke-linecap="round" stroke-linejoin="round" stroke-width="1"/>
    <path id="Tracciato_448" data-name="Tracciato 448" d="M1481.7,18.478V15.606a7.7,7.7,0,1,1,15.391,0v2.872" fill="none" stroke="#fff" stroke-linecap="round" stroke-linejoin="round" stroke-width="1"/>
  </g>
</svg>
