<svg xmlns="http://www.w3.org/2000/svg" width="42.556" height="42.557" viewBox="0 0 42.556 42.557">
  <g id="Raggruppa_270" data-name="Raggruppa 270" transform="translate(-4864.934 -4034.653)">
    <g id="Raggruppa_269" data-name="Raggruppa 269">
      <g id="Raggruppa_268" data-name="Raggruppa 268">
        <g id="Raggruppa_267" data-name="Raggruppa 267">
          <g id="Raggruppa_266" data-name="Raggruppa 266">
            <g id="Raggruppa_265" data-name="Raggruppa 265">
              <circle id="Ellisse_9" data-name="Ellisse 9" cx="9.034" cy="9.034" r="9.034" transform="translate(4888.922 4058.642)" fill="none" stroke="#a19991" stroke-linecap="round" stroke-linejoin="round" stroke-width="1"/>
            </g>
            <path id="Tracciato_226" data-name="Tracciato 226" d="M4894.188,4067.676l2.512,2.512,5.024-5.024" fill="none" stroke="#a19991" stroke-linecap="round" stroke-linejoin="round" stroke-width="1"/>
          </g>
        </g>
      </g>
    </g>
    <path id="Tracciato_227" data-name="Tracciato 227" d="M4893.453,4055.868c.045-.279.087-.56.109-.84h.089a1.807,1.807,0,0,0,1.793-1.583l.451-3.613a1.8,1.8,0,0,0-1.773-2.027l.22-4.521.9-.9c1.169-1.243,1.169-2.731,0-4.517s-3.222-2.71-6.088-2.71a10.866,10.866,0,0,0-6.56,1.807c-7.28.072-8.13,3.1-8.13,6.324,0,1.134.426,4.517.426,4.517h-.186a1.806,1.806,0,0,0-1.793,2.031l.451,3.613a1.807,1.807,0,0,0,1.793,1.583h.294a11.52,11.52,0,0,0,3.514,7.3l-.886,3.543-7.445,1.861c-4.119,1.03-5.2,4.733-5.2,8.98l23.676,0" fill="none" stroke="#a19991" stroke-linecap="round" stroke-linejoin="round" stroke-width="1"/>
  </g>
</svg>
