<svg xmlns="http://www.w3.org/2000/svg" width="25.131" height="43.264" viewBox="0 0 25.131 43.264">
  <g id="Raggruppa_525" data-name="Raggruppa 525" transform="translate(-203.648 -5364.932)">
    <g id="Raggruppa_524" data-name="Raggruppa 524">
      <path id="Tracciato_419" data-name="Tracciato 419" d="M228.279,5377.5c0,6.664-12.066,25-12.066,25s-12.065-18.336-12.065-25a12.066,12.066,0,0,1,24.131,0Z" fill="none" stroke="#a19991" stroke-linecap="round" stroke-linejoin="round" stroke-width="1"/>
      <path id="Tracciato_420" data-name="Tracciato 420" d="M216.213,5379.9a3.725,3.725,0,1,1,3.726-3.724A3.725,3.725,0,0,1,216.213,5379.9Z" fill="none" stroke="#a19991" stroke-linecap="round" stroke-linejoin="round" stroke-width="1"/>
      <path id="Tracciato_421" data-name="Tracciato 421" d="M221.8,5400.279c3.467.679,5.808,1.97,5.808,3.453,0,2.193-5.1,3.964-11.4,3.964s-11.393-1.771-11.393-3.964c0-1.489,2.362-2.786,5.855-3.462" fill="none" stroke="#a19991" stroke-linecap="round" stroke-linejoin="round" stroke-width="1"/>
    </g>
  </g>
</svg>
