<svg xmlns="http://www.w3.org/2000/svg" width="11.505" height="19.398" viewBox="0 0 11.505 19.398">
  <g id="Raggruppa_544" data-name="Raggruppa 544" transform="translate(-363.077 -7.801)">
    <path id="Tracciato_453" data-name="Tracciato 453" d="M374.082,13.553c0,2.9-5.253,10.883-5.253,10.883s-5.252-7.982-5.252-10.883a5.253,5.253,0,0,1,10.505,0Z" fill="none" stroke="#fff" stroke-linecap="round" stroke-linejoin="round" stroke-width="1"/>
    <path id="Tracciato_454" data-name="Tracciato 454" d="M368.829,14.6a1.622,1.622,0,1,1,1.622-1.621A1.621,1.621,0,0,1,368.829,14.6Z" fill="none" stroke="#fff" stroke-linecap="round" stroke-linejoin="round" stroke-width="1"/>
    <path id="Tracciato_455" data-name="Tracciato 455" d="M371.262,23.471c1.509.3,2.528.857,2.528,1.5,0,.955-2.221,1.725-4.961,1.725s-4.96-.77-4.96-1.725c0-.648,1.028-1.213,2.549-1.507" fill="none" stroke="#fff" stroke-linecap="round" stroke-linejoin="round" stroke-width="1"/>
  </g>
</svg>
