<svg xmlns="http://www.w3.org/2000/svg" width="174.891" height="52.758" viewBox="0 0 174.891 52.758">
  <g id="Raggruppa_534" data-name="Raggruppa 534" transform="translate(-196.352 -58.621)">
    <g id="POLYLINE">
      <path id="Tracciato_432" data-name="Tracciato 432" d="M371.073,99.469v2.488h-6.049v1.857h5.612v2.369h-5.612v2.3h6.219v2.644h-9.826V99.469h9.656" fill="#1d1d1b"/>
    </g>
    <g id="POLYLINE-2" data-name="POLYLINE">
      <path id="Tracciato_433" data-name="Tracciato 433" d="M355.635,99.469v6.451l-4.385-6.451h-3.363v11.661h3.387v-6.4l4.362,6.4h3.4V99.469h-3.4" fill="#1d1d1b"/>
    </g>
    <g id="POLYLINE-3" data-name="POLYLINE">
      <path id="Tracciato_434" data-name="Tracciato 434" d="M341.672,111.13h3.607V99.469h-3.607V111.13" fill="#1d1d1b"/>
    </g>
    <g id="SPLINE">
      <path id="Tracciato_435" data-name="Tracciato 435" d="M336.29,106.348a2.981,2.981,0,0,1-.529,1.547,2.258,2.258,0,0,1-3.31,0,4.305,4.305,0,0,1-.588-2.646,4.179,4.179,0,0,1,.493-2.3,2.049,2.049,0,0,1,3.5,0,2.392,2.392,0,0,1,.3.655h3.655a5.331,5.331,0,0,0-1.39-2.786,6.762,6.762,0,0,0-8.631,0,6.09,6.09,0,0,0-1.534,4.446,6.63,6.63,0,0,0,.873,3.565,4.892,4.892,0,0,0,2.079,1.935,7.781,7.781,0,0,0,5.8,0,4.86,4.86,0,0,0,2.077-1.935,5.833,5.833,0,0,0,.818-2.483Z" fill="#1d1d1b"/>
    </g>
    <g id="SPLINE-2" data-name="SPLINE">
      <path id="Tracciato_436" data-name="Tracciato 436" d="M322.892,99.469v6.946a2,2,0,1,1-3.994,0V99.469h-3.6v6.946c0,3.011,2.806,4.964,5.59,4.964s5.6-1.953,5.6-4.964V99.469Z" fill="#1d1d1b"/>
    </g>
    <g id="SPLINE-3" data-name="SPLINE">
      <path id="Tracciato_437" data-name="Tracciato 437" d="M310.248,106.354a2.977,2.977,0,0,1-.53,1.541,2.258,2.258,0,0,1-3.31,0,4.325,4.325,0,0,1-.589-2.646,4.134,4.134,0,0,1,.495-2.3,2.047,2.047,0,0,1,3.5,0,2.468,2.468,0,0,1,.3.655h3.654a5.33,5.33,0,0,0-1.386-2.786,6.762,6.762,0,0,0-8.631,0,6.1,6.1,0,0,0-1.538,4.446,6.6,6.6,0,0,0,.876,3.565,4.886,4.886,0,0,0,2.077,1.936,7.8,7.8,0,0,0,5.8,0,4.912,4.912,0,0,0,2.079-1.936,6,6,0,0,0,.816-2.477Z" fill="#1d1d1b"/>
    </g>
    <path id="Tracciato_438" data-name="Tracciato 438" d="M360.434,58.621V78.378L348.8,58.621H338.046V93.706L326.017,58.621H314.575L302.682,93.338h-.321c-.637-.047-.983-.786-1.025-2.252v-.1l-.2-5.036a9.407,9.407,0,0,0-1.458-5.472,6.669,6.669,0,0,0-4.256-2.54,8.965,8.965,0,0,0,4.256-3.423,10.073,10.073,0,0,0,1.411-5.477c0-3.714-1.125-6.352-3.376-7.97s-6.012-2.447-11.292-2.447H269.557V93.854L257.479,58.621H246.037L233.668,94.706h11.1l2.612-9.262,4.429,9.161,4.347-8.883,2.5,8.984H280.7V82.287h4.846c1.757,0,2.977.341,3.715,1.128.733.73,1.072,2.047,1.072,3.9v3.62a12.367,12.367,0,0,0,.148,1.517,17.993,17.993,0,0,0,.488,2.25h22.34l2.6-9.274h0l4.392,9.025,4.358-8.918h0l2.537,9.167H348.8V75.061l1.756,2.972,9.875,16.673h10.809V58.621ZM251.8,82.628h-3.631l3.584-12.71,3.536,12.71ZM289.6,73.389a6.947,6.947,0,0,1-3.768.732H280.7V67.377h4.894a7.6,7.6,0,0,1,4.006.733,3.19,3.19,0,0,1,1.024,2.691A2.988,2.988,0,0,1,289.6,73.389Zm30.7,9.144h-3.579L320.3,69.77l3.529,12.763Z" fill="#1d1d1b"/>
    <path id="Tracciato_439" data-name="Tracciato 439" d="M225.263,58.653l-22.295,4.6-6.616,14.332L206.871,94.7l23.887.007,5.51-16.235Zm8.875,18.466-13.795-6.33,4.649-10.073ZM223.866,60.2l-4.65,10.073-13.794-6.329ZM201.342,83.337,197.756,77.5l4.806-10.411Zm2.648-18.689,14.348,6.583L202.569,83.573Zm3.577,28.818-4.357-7.088,15.457,7.091Zm-4.656-8.588,16.1-12.6,1.984,20.9ZM220.24,72.1l14.345,6.582L222.2,92.7Zm9.65,21.368h-6.717l10.715-12.125Z" fill="#1d1d1b"/>
  </g>
</svg>
