<svg xmlns="http://www.w3.org/2000/svg" width="83.668" height="83.668" viewBox="0 0 83.668 83.668">
  <g id="Raggruppa_519" data-name="Raggruppa 519" transform="translate(-1398.166 -5233.418)">
    <circle id="Ellisse_18" data-name="Ellisse 18" cx="41.834" cy="41.834" r="41.834" transform="translate(1398.166 5233.418)" fill="#1d1d1b"/>
    <path id="Tracciato_414" data-name="Tracciato 414" d="M1449.726,5255.667l-24.22,5-7.188,15.57,11.428,18.6,25.95.007,5.986-17.636Zm9.641,20.06-14.985-6.876,5.051-10.943Zm-11.159-18.381-5.051,10.943-14.985-6.876Zm-24.468,25.136-3.9-6.338,5.221-11.31Zm2.877-20.3,15.586,7.151-17.131,13.408Zm3.885,31.306-4.733-7.7,16.792,7.7Zm-5.058-9.329,17.489-13.688,2.156,22.7Zm18.825-13.878,15.585,7.15-13.46,15.229Zm10.484,23.213h-7.3l11.641-13.172Z" fill="#fff"/>
  </g>
</svg>
