<svg xmlns="http://www.w3.org/2000/svg" width="745.223" height="438.183" viewBox="0 0 745.223 438.183">
  <g id="Raggruppa_484" data-name="Raggruppa 484" transform="translate(183.767 -4430.352)">
    <path id="Tracciato_408" data-name="Tracciato 408" d="M167.828,4430.352l-271.4,55.994-80.2,173.732,128.054,208.378,290.889.079,66.74-196.664ZM291,4664.415,103.09,4578.192l63.333-137.214ZM160.613,4438.3,97.272,4575.526-90.651,4489.3Zm-337.131,221.357,71.131-154.088L-123.445,4746Zm78.507-166.717,190.765,87.524-209.667,164.1Zm45.9,369.153L-115.287,4759.3l224.152,102.832ZM-116,4751.953,96.209,4585.872l26.155,275.442Zm218.561-166.99,190.75,87.517L128.57,4858.88Zm128.311,277.2-96.649-.012L288.4,4687.681Z" fill="#ededed"/>
    <path id="Tracciato_409" data-name="Tracciato 409" d="M484.275,4697.272l68.016-36.657,9.165-98.259-93.835-70.494-69.24,47.329-15.243,110.4Zm-95.876-48.7,52.69-28.4,39.011,71.993Zm95.731,44.35-39.757-73.364,105.831-2.123Zm65.143-34.311L490.852,4690.1l62.1-70.946Zm8.839-94.794-4.391,47.118-46.09-85.041Zm-6.237,50.4-107.262,2.149,57.515-93.945Zm-84.426-118.5,30.348,22.792-89.553,18.434Zm31.475,25.819-57.116,93.293-39.754-73.356Zm-98.366,23.849,39.009,71.988-52.685,28.4Z" fill="#ededed"/>
  </g>
</svg>
