<svg xmlns="http://www.w3.org/2000/svg" width="723.126" height="469.98" viewBox="0 0 723.126 469.98">
  <g id="Raggruppa_590" data-name="Raggruppa 590" transform="translate(183.767 -4398.555)">
    <path id="Tracciato_408" data-name="Tracciato 408" d="M167.828,4430.352l-271.4,55.994-80.2,173.732,128.054,208.378,290.889.079,66.74-196.664ZM291,4664.415,103.09,4578.192l63.333-137.214ZM160.613,4438.3,97.272,4575.526-90.651,4489.3Zm-337.131,221.357,71.131-154.088L-123.445,4746Zm78.507-166.717,190.765,87.524-209.667,164.1Zm45.9,369.153L-115.287,4759.3l224.152,102.832ZM-116,4751.953,96.209,4585.872l26.155,275.442Zm218.561-166.99,190.75,87.517L128.57,4858.88Zm128.311,277.2-96.649-.012L288.4,4687.681Z" fill="#ededed"/>
    <path id="Tracciato_409" data-name="Tracciato 409" d="M513.146,4755.909l87.432-47.121,11.781-126.309-120.621-90.618L402.732,4552.7l-19.594,141.912Zm-123.245-62.6,67.731-36.5,50.147,92.544Zm123.059,57.011-51.106-94.307,136.042-2.729Zm83.739-44.106-75.1,40.473,79.825-91.2Zm11.362-121.854-5.644,60.568-59.247-109.317Zm-8.017,64.784-137.881,2.763L536.1,4531.146ZM491.517,4496.814l39.011,29.3-115.117,23.7Zm40.46,33.19-73.42,119.924-51.1-94.3Zm-126.446,30.656,50.145,92.538-67.725,36.5Z" transform="translate(-73 -93.306)" fill="#ededed"/>
  </g>
</svg>
