<svg xmlns="http://www.w3.org/2000/svg" width="39.286" height="39.509" viewBox="0 0 39.286 39.509">
  <g id="Raggruppa_523" data-name="Raggruppa 523" transform="translate(-196.571 -5194.809)">
    <g id="Raggruppa_522" data-name="Raggruppa 522">
      <path id="Tracciato_415" data-name="Tracciato 415" d="M222.351,5219.344a.826.826,0,0,0-1.151-.021s-2.355,2.3-2.511,2.449a.508.508,0,0,1-.129.093c-2.449,1.24-11.287-8.223-9.6-10l2.519-2.469a.825.825,0,0,0,.012-1.166l-8.246-8.409a.824.824,0,0,0-1.167-.01c-4.129,4.054-10.749,8.13,4.716,23.9,15.262,15.565,19.637,9.666,23.85,5.136a.827.827,0,0,0-.015-1.143Z" fill="none" stroke="#a19991" stroke-linecap="round" stroke-linejoin="round" stroke-width="1"/>
      <path id="Tracciato_416" data-name="Tracciato 416" d="M229.514,5213.2a11.639,11.639,0,0,0-12.045-12.044" fill="none" stroke="#a19991" stroke-linecap="round" stroke-linejoin="round" stroke-width="1"/>
      <path id="Tracciato_417" data-name="Tracciato 417" d="M235.352,5213.2a17.467,17.467,0,0,0-17.883-17.882" fill="none" stroke="#a19991" stroke-linecap="round" stroke-linejoin="round" stroke-width="1"/>
      <path id="Tracciato_418" data-name="Tracciato 418" d="M217.469,5206.991a5.821,5.821,0,0,1,6.206,6.2" fill="none" stroke="#a19991" stroke-linecap="round" stroke-linejoin="round" stroke-width="1"/>
    </g>
  </g>
</svg>
