<svg xmlns="http://www.w3.org/2000/svg" width="19.188" height="19.294" viewBox="0 0 19.188 19.294">
  <g id="Raggruppa_542" data-name="Raggruppa 542" transform="translate(-195.852 -7.853)">
    <path id="Tracciato_449" data-name="Tracciato 449" d="M208.362,19.771a.392.392,0,0,0-.547-.01s-1.119,1.1-1.193,1.163a.221.221,0,0,1-.061.044c-1.163.589-5.362-3.906-4.561-4.751l1.2-1.173a.393.393,0,0,0,0-.554l-3.917-3.995a.391.391,0,0,0-.554,0c-1.962,1.925-5.107,3.862,2.24,11.355,7.25,7.394,9.329,4.592,11.33,2.44a.392.392,0,0,0-.007-.543Z" fill="none" stroke="#fff" stroke-linecap="round" stroke-linejoin="round" stroke-width="1"/>
    <path id="Tracciato_450" data-name="Tracciato 450" d="M211.764,16.85a5.528,5.528,0,0,0-5.721-5.721" fill="none" stroke="#fff" stroke-linecap="round" stroke-linejoin="round" stroke-width="1"/>
    <path id="Tracciato_451" data-name="Tracciato 451" d="M214.538,16.85a8.3,8.3,0,0,0-8.495-8.5" fill="none" stroke="#fff" stroke-linecap="round" stroke-linejoin="round" stroke-width="1"/>
    <path id="Tracciato_452" data-name="Tracciato 452" d="M206.043,13.9a2.766,2.766,0,0,1,2.948,2.948" fill="none" stroke="#fff" stroke-linecap="round" stroke-linejoin="round" stroke-width="1"/>
  </g>
</svg>
